<?xml version="1.0" encoding="UTF-8" standalone="no"?>
<!DOCTYPE svg PUBLIC "-//W3C//DTD SVG 1.1//EN"
 "http://www.w3.org/Graphics/SVG/1.1/DTD/svg11.dtd">
<!-- Generated by graphviz version 2.40.1 (0)
 -->
<!-- Title: perl6&#45;type&#45;graph Pages: 1 -->
<svg width="401pt" height="188pt"
 viewBox="0.00 0.00 400.57 188.00" xmlns="http://www.w3.org/2000/svg" xmlns:xlink="http://www.w3.org/1999/xlink">
<g id="graph0" class="graph" transform="scale(1 1) rotate(0) translate(4 184)">
<title>perl6&#45;type&#45;graph</title>
<polygon fill="#ffffff" stroke="transparent" points="-4,4 -4,-184 396.5652,-184 396.5652,4 -4,4"/>
<!-- X::Documentable::Config::InvalidConfig -->
<g id="node1" class="node">
<title>X::Documentable::Config::InvalidConfig</title>
<g id="a_node1"><a xlink:href="/type/X::Documentable::Config::InvalidConfig" xlink:title="X::Documentable::Config::InvalidConfig">
<ellipse fill="none" stroke="#000000" cx="196.2826" cy="-18" rx="196.0654" ry="18"/>
<text text-anchor="middle" x="196.2826" y="-14.3" font-family="FreeSans" font-size="14.00" fill="#000000">X::Documentable::Config::InvalidConfig</text>
</a>
</g>
</g>
<!-- Exception -->
<g id="node3" class="node">
<title>Exception</title>
<g id="a_node3"><a xlink:href="/type/Exception" xlink:title="Exception">
<ellipse fill="none" stroke="#000000" cx="196.2826" cy="-90" rx="54.6905" ry="18"/>
<text text-anchor="middle" x="196.2826" y="-86.3" font-family="FreeSans" font-size="14.00" fill="#000000">Exception</text>
</a>
</g>
</g>
<!-- X::Documentable::Config::InvalidConfig&#45;&gt;Exception -->
<g id="edge1" class="edge">
<title>X::Documentable::Config::InvalidConfig&#45;&gt;Exception</title>
<path fill="none" stroke="#000000" d="M196.2826,-36.1686C196.2826,-43.869 196.2826,-53.0257 196.2826,-61.5834"/>
<polygon fill="#000000" stroke="#000000" points="192.7827,-61.5867 196.2826,-71.5867 199.7827,-61.5868 192.7827,-61.5867"/>
</g>
<!-- Any -->
<g id="node2" class="node">
<title>Any</title>
<g id="a_node2"><a xlink:href="/type/Any" xlink:title="Any">
<ellipse fill="none" stroke="#000000" cx="196.2826" cy="-162" rx="27" ry="18"/>
<text text-anchor="middle" x="196.2826" y="-158.3" font-family="FreeSans" font-size="14.00" fill="#000000">Any</text>
</a>
</g>
</g>
<!-- Exception&#45;&gt;Any -->
<g id="edge2" class="edge">
<title>Exception&#45;&gt;Any</title>
<path fill="none" stroke="#000000" d="M196.2826,-108.1686C196.2826,-115.869 196.2826,-125.0257 196.2826,-133.5834"/>
<polygon fill="#000000" stroke="#000000" points="192.7827,-133.5867 196.2826,-143.5867 199.7827,-133.5868 192.7827,-133.5867"/>
</g>
</g>
</svg>
