<?xml version="1.0" encoding="UTF-8" standalone="no"?>
<!DOCTYPE svg PUBLIC "-//W3C//DTD SVG 1.1//EN"
 "http://www.w3.org/Graphics/SVG/1.1/DTD/svg11.dtd">
<!-- Generated by graphviz version 2.40.1 (0)
 -->
<!-- Title: perl6&#45;type&#45;graph Pages: 1 -->
<svg width="284pt" height="188pt"
 viewBox="0.00 0.00 283.58 188.00" xmlns="http://www.w3.org/2000/svg" xmlns:xlink="http://www.w3.org/1999/xlink">
<g id="graph0" class="graph" transform="scale(1 1) rotate(0) translate(4 184)">
<title>perl6&#45;type&#45;graph</title>
<polygon fill="#ffffff" stroke="transparent" points="-4,4 -4,-184 279.5755,-184 279.5755,4 -4,4"/>
<!-- Perl6::Documentable::Index -->
<g id="node1" class="node">
<title>Perl6::Documentable::Index</title>
<g id="a_node1"><a xlink:href="/type/Perl6::Documentable::Index" xlink:title="Perl6::Documentable::Index">
<ellipse fill="none" stroke="#000000" cx="137.7878" cy="-18" rx="137.5759" ry="18"/>
<text text-anchor="middle" x="137.7878" y="-14.3" font-family="FreeSans" font-size="14.00" fill="#000000">Perl6::Documentable::Index</text>
</a>
</g>
</g>
<!-- Perl6::Documentable -->
<g id="node3" class="node">
<title>Perl6::Documentable</title>
<g id="a_node3"><a xlink:href="/type/Perl6::Documentable" xlink:title="Perl6::Documentable">
<ellipse fill="none" stroke="#000000" cx="137.7878" cy="-90" rx="103.1819" ry="18"/>
<text text-anchor="middle" x="137.7878" y="-86.3" font-family="FreeSans" font-size="14.00" fill="#000000">Perl6::Documentable</text>
</a>
</g>
</g>
<!-- Perl6::Documentable::Index&#45;&gt;Perl6::Documentable -->
<g id="edge1" class="edge">
<title>Perl6::Documentable::Index&#45;&gt;Perl6::Documentable</title>
<path fill="none" stroke="#000000" d="M137.7878,-36.1686C137.7878,-43.869 137.7878,-53.0257 137.7878,-61.5834"/>
<polygon fill="#000000" stroke="#000000" points="134.2879,-61.5867 137.7878,-71.5867 141.2879,-61.5868 134.2879,-61.5867"/>
</g>
<!-- Any -->
<g id="node2" class="node">
<title>Any</title>
<g id="a_node2"><a xlink:href="/type/Any" xlink:title="Any">
<ellipse fill="none" stroke="#000000" cx="137.7878" cy="-162" rx="27" ry="18"/>
<text text-anchor="middle" x="137.7878" y="-158.3" font-family="FreeSans" font-size="14.00" fill="#000000">Any</text>
</a>
</g>
</g>
<!-- Perl6::Documentable&#45;&gt;Any -->
<g id="edge2" class="edge">
<title>Perl6::Documentable&#45;&gt;Any</title>
<path fill="none" stroke="#000000" d="M137.7878,-108.1686C137.7878,-115.869 137.7878,-125.0257 137.7878,-133.5834"/>
<polygon fill="#000000" stroke="#000000" points="134.2879,-133.5867 137.7878,-143.5867 141.2879,-133.5868 134.2879,-133.5867"/>
</g>
</g>
</svg>
