<?xml version="1.0" encoding="UTF-8" standalone="no"?>
<!DOCTYPE svg PUBLIC "-//W3C//DTD SVG 1.1//EN"
 "http://www.w3.org/Graphics/SVG/1.1/DTD/svg11.dtd">
<!-- Generated by graphviz version 2.40.1 (0)
 -->
<!-- Title: perl6&#45;type&#45;graph Pages: 1 -->
<svg width="1068pt" height="1514pt"
 viewBox="0.00 0.00 1068.31 1514.00" xmlns="http://www.w3.org/2000/svg" xmlns:xlink="http://www.w3.org/1999/xlink">
<g id="graph0" class="graph" transform="scale(1 1) rotate(0) translate(4 1510)">
<title>perl6&#45;type&#45;graph</title>
<polygon fill="#ffffff" stroke="transparent" points="-4,4 -4,-1510 1064.3137,-1510 1064.3137,4 -4,4"/>
<g id="clust1" class="cluster">
<title>cluster: Mu children</title>
</g>
<g id="clust2" class="cluster">
<title>cluster: Pod:: top level</title>
</g>
<g id="clust3" class="cluster">
<title>cluster: Date/time handling</title>
</g>
<g id="clust4" class="cluster">
<title>cluster: Collection roles</title>
</g>
<!-- Any -->
<g id="node1" class="node">
<title>Any</title>
<g id="a_node1"><a xlink:href="/type/Any" xlink:title="Any">
<ellipse fill="none" stroke="#000000" cx="994.2682" cy="-288" rx="27" ry="18"/>
<text text-anchor="middle" x="994.2682" y="-284.3" font-family="FreeSans" font-size="14.00" fill="#000000">Any</text>
</a>
</g>
</g>
<!-- Junction -->
<g id="node2" class="node">
<title>Junction</title>
<ellipse fill="none" stroke="#000000" cx="994.2682" cy="-234" rx="50.0912" ry="18"/>
<text text-anchor="middle" x="994.2682" y="-230.3" font-family="Times,serif" font-size="14.00" fill="#000000">Junction</text>
</g>
<!-- Pod::Config -->
<g id="node3" class="node">
<title>Pod::Config</title>
<ellipse fill="none" stroke="#000000" cx="239.8287" cy="-612" rx="64.189" ry="18"/>
<text text-anchor="middle" x="239.8287" y="-608.3" font-family="Times,serif" font-size="14.00" fill="#000000">Pod::Config</text>
</g>
<!-- Pod::Block -->
<g id="node4" class="node">
<title>Pod::Block</title>
<ellipse fill="none" stroke="#000000" cx="239.8287" cy="-558" rx="59.5901" ry="18"/>
<text text-anchor="middle" x="239.8287" y="-554.3" font-family="Times,serif" font-size="14.00" fill="#000000">Pod::Block</text>
</g>
<!-- Date -->
<g id="node5" class="node">
<title>Date</title>
<ellipse fill="none" stroke="#000000" cx="239.8287" cy="-780" rx="30.5947" ry="18"/>
<text text-anchor="middle" x="239.8287" y="-776.3" font-family="Times,serif" font-size="14.00" fill="#000000">Date</text>
</g>
<!-- DateTime -->
<g id="node6" class="node">
<title>DateTime</title>
<ellipse fill="none" stroke="#000000" cx="239.8287" cy="-726" rx="50.0912" ry="18"/>
<text text-anchor="middle" x="239.8287" y="-722.3" font-family="Times,serif" font-size="14.00" fill="#000000">DateTime</text>
</g>
<!-- DateTime&#45;local&#45;timezone -->
<g id="node7" class="node">
<title>DateTime&#45;local&#45;timezone</title>
<ellipse fill="none" stroke="#000000" cx="239.8287" cy="-672" rx="122.6784" ry="18"/>
<text text-anchor="middle" x="239.8287" y="-668.3" font-family="Times,serif" font-size="14.00" fill="#000000">DateTime&#45;local&#45;timezone</text>
</g>
<!-- Positional -->
<g id="node8" class="node">
<title>Positional</title>
<ellipse fill="none" stroke="#000000" cx="239.8287" cy="-948" rx="59.5901" ry="18"/>
<text text-anchor="middle" x="239.8287" y="-944.3" font-family="Times,serif" font-size="14.00" fill="#000000">Positional</text>
</g>
<!-- Associative -->
<g id="node9" class="node">
<title>Associative</title>
<ellipse fill="none" stroke="#000000" cx="239.8287" cy="-894" rx="64.189" ry="18"/>
<text text-anchor="middle" x="239.8287" y="-890.3" font-family="Times,serif" font-size="14.00" fill="#000000">Associative</text>
</g>
<!-- Baggy -->
<g id="node10" class="node">
<title>Baggy</title>
<ellipse fill="none" stroke="#000000" cx="239.8287" cy="-840" rx="35.194" ry="18"/>
<text text-anchor="middle" x="239.8287" y="-836.3" font-family="Times,serif" font-size="14.00" fill="#000000">Baggy</text>
</g>
<!-- Exception -->
<g id="node11" class="node">
<title>Exception</title>
<g id="a_node11"><a xlink:href="/type/Exception" xlink:title="Exception">
<ellipse fill="none" stroke="#000000" cx="711.94" cy="-558" rx="54.6905" ry="18"/>
<text text-anchor="middle" x="711.94" y="-554.3" font-family="FreeSans" font-size="14.00" fill="#000000">Exception</text>
</a>
</g>
</g>
<!-- Exception&#45;&gt;Any -->
<g id="edge1" class="edge">
<title>Exception&#45;&gt;Any</title>
<path fill="none" stroke="#000000" d="M762.4877,-551.0468C820.6448,-543.0469 908.2226,-531 908.2226,-531 908.2226,-531 961.9243,-379.3419 984.4785,-315.6469"/>
<polygon fill="#000000" stroke="#000000" points="987.9023,-316.4631 987.941,-305.8684 981.3038,-314.1266 987.9023,-316.4631"/>
</g>
<!-- Kind -->
<g id="node12" class="node">
<title>Kind</title>
<g id="a_node12"><a xlink:href="/type/Kind" xlink:title="Kind">
<ellipse fill="none" stroke="#33bb33" cx="711.94" cy="-504" rx="30.5947" ry="18"/>
<text text-anchor="middle" x="711.94" y="-500.3" font-family="FreeSans" font-size="14.00" fill="#33bb33">Kind</text>
</a>
</g>
</g>
<!-- Kind&#45;&gt;Any -->
<g id="edge2" class="edge">
<title>Kind&#45;&gt;Any</title>
<path fill="none" stroke="#000000" d="M741.7511,-499.8993C796.6606,-492.3461 908.2226,-477 908.2226,-477 908.2226,-477 958.3558,-366.8819 982.0883,-314.7532"/>
<polygon fill="#000000" stroke="#000000" points="985.3693,-315.9933 986.3274,-305.4419 978.9985,-313.0929 985.3693,-315.9933"/>
</g>
<!-- Perl6::Documentable -->
<g id="node13" class="node">
<title>Perl6::Documentable</title>
<g id="a_node13"><a xlink:href="/type/Perl6::Documentable" xlink:title="Perl6::Documentable">
<ellipse fill="none" stroke="#000000" cx="711.94" cy="-450" rx="103.1819" ry="18"/>
<text text-anchor="middle" x="711.94" y="-446.3" font-family="FreeSans" font-size="14.00" fill="#000000">Perl6::Documentable</text>
</a>
</g>
</g>
<!-- Perl6::Documentable&#45;&gt;Any -->
<g id="edge3" class="edge">
<title>Perl6::Documentable&#45;&gt;Any</title>
<path fill="none" stroke="#000000" d="M793.1925,-438.8232C847.1911,-431.3953 908.2226,-423 908.2226,-423 908.2226,-423 953.0095,-352.7322 977.9595,-313.5872"/>
<polygon fill="#000000" stroke="#000000" points="981.121,-315.1389 983.5444,-304.8249 975.2181,-311.3764 981.121,-315.1389"/>
</g>
<!-- Perl6::Documentable::Config -->
<g id="node14" class="node">
<title>Perl6::Documentable::Config</title>
<g id="a_node14"><a xlink:href="/type/Perl6::Documentable::Config" xlink:title="Perl6::Documentable::Config">
<ellipse fill="none" stroke="#000000" cx="711.94" cy="-396" rx="142.1749" ry="18"/>
<text text-anchor="middle" x="711.94" y="-392.3" font-family="FreeSans" font-size="14.00" fill="#000000">Perl6::Documentable::Config</text>
</a>
</g>
</g>
<!-- Perl6::Documentable::Config&#45;&gt;Any -->
<g id="edge4" class="edge">
<title>Perl6::Documentable::Config&#45;&gt;Any</title>
<path fill="none" stroke="#000000" d="M808.3563,-382.7373C857.9951,-375.9091 908.2226,-369 908.2226,-369 908.2226,-369 945.5279,-333.8822 971.0114,-309.8931"/>
<polygon fill="#000000" stroke="#000000" points="973.6038,-312.2595 978.4861,-302.8566 968.8057,-307.1626 973.6038,-312.2595"/>
</g>
<!-- Perl6::Documentable::DocPage -->
<g id="node15" class="node">
<title>Perl6::Documentable::DocPage</title>
<g id="a_node15"><a xlink:href="/type/Perl6::Documentable::DocPage" xlink:title="Perl6::Documentable::DocPage">
<ellipse fill="none" stroke="#6666ff" cx="711.94" cy="-1245" rx="147.5738" ry="18"/>
<text text-anchor="middle" x="711.94" y="-1241.3" font-family="FreeSans" font-size="14.00" fill="#6666ff">Perl6::Documentable::DocPage</text>
</a>
</g>
</g>
<!-- Perl6::Documentable::DocPage::Factory -->
<g id="node16" class="node">
<title>Perl6::Documentable::DocPage::Factory</title>
<g id="a_node16"><a xlink:href="/type/Perl6::Documentable::DocPage::Factory" xlink:title="Perl6::Documentable::DocPage::Factory">
<ellipse fill="none" stroke="#000000" cx="711.94" cy="-342" rx="191.1661" ry="18"/>
<text text-anchor="middle" x="711.94" y="-338.3" font-family="FreeSans" font-size="14.00" fill="#000000">Perl6::Documentable::DocPage::Factory</text>
</a>
</g>
</g>
<!-- Perl6::Documentable::DocPage::Factory&#45;&gt;Any -->
<g id="edge5" class="edge">
<title>Perl6::Documentable::DocPage::Factory&#45;&gt;Any</title>
<path fill="none" stroke="#000000" d="M820.129,-327.1179C865.6315,-320.8587 908.2226,-315 908.2226,-315 908.2226,-315 935.8348,-306.3356 959.7756,-298.8233"/>
<polygon fill="#000000" stroke="#000000" points="960.8868,-302.143 969.3802,-295.8095 958.791,-295.4641 960.8868,-302.143"/>
</g>
<!-- Perl6::Documentable::DocPage::Index -->
<g id="node17" class="node">
<title>Perl6::Documentable::DocPage::Index</title>
<g id="a_node17"><a xlink:href="/type/Perl6::Documentable::DocPage::Index" xlink:title="Perl6::Documentable::DocPage::Index">
<ellipse fill="none" stroke="#000000" cx="711.94" cy="-288" rx="181.168" ry="18"/>
<text text-anchor="middle" x="711.94" y="-284.3" font-family="FreeSans" font-size="14.00" fill="#000000">Perl6::Documentable::DocPage::Index</text>
</a>
</g>
</g>
<!-- Perl6::Documentable::DocPage::Index&#45;&gt;Any -->
<g id="edge6" class="edge">
<title>Perl6::Documentable::DocPage::Index&#45;&gt;Any</title>
<path fill="none" stroke="#000000" d="M893.5369,-288C917.2936,-288 939.3818,-288 956.7841,-288"/>
<polygon fill="#000000" stroke="#000000" points="956.987,-291.5001 966.987,-288 956.987,-284.5001 956.987,-291.5001"/>
</g>
<!-- Perl6::Documentable::DocPage::Index::Language -->
<g id="node18" class="node">
<title>Perl6::Documentable::DocPage::Index::Language</title>
<g id="a_node18"><a xlink:href="/type/Perl6::Documentable::DocPage::Index::Language" xlink:title="Perl6::Documentable::DocPage::Index::Language">
<ellipse fill="none" stroke="#000000" cx="239.8287" cy="-1488" rx="230.1592" ry="18"/>
<text text-anchor="middle" x="239.8287" y="-1484.3" font-family="FreeSans" font-size="14.00" fill="#000000">Perl6::Documentable::DocPage::Index::Language</text>
</a>
</g>
</g>
<!-- Perl6::Documentable::DocPage::Index::Language&#45;&gt;Perl6::Documentable::DocPage -->
<g id="edge7" class="edge">
<title>Perl6::Documentable::DocPage::Index::Language&#45;&gt;Perl6::Documentable::DocPage</title>
<path fill="none" stroke="#000000" d="M371.3203,-1473.1966C427.18,-1466.9079 479.6574,-1461 479.6574,-1461 479.6574,-1461 624.0896,-1326.6922 685.1729,-1269.8908"/>
<polygon fill="#000000" stroke="#000000" points="687.5956,-1272.4174 692.5353,-1263.0445 682.8287,-1267.2912 687.5956,-1272.4174"/>
</g>
<!-- Perl6::Documentable::DocPage::Index::Programs -->
<g id="node19" class="node">
<title>Perl6::Documentable::DocPage::Index::Programs</title>
<g id="a_node19"><a xlink:href="/type/Perl6::Documentable::DocPage::Index::Programs" xlink:title="Perl6::Documentable::DocPage::Index::Programs">
<ellipse fill="none" stroke="#000000" cx="239.8287" cy="-1434" rx="230.1592" ry="18"/>
<text text-anchor="middle" x="239.8287" y="-1430.3" font-family="FreeSans" font-size="14.00" fill="#000000">Perl6::Documentable::DocPage::Index::Programs</text>
</a>
</g>
</g>
<!-- Perl6::Documentable::DocPage::Index::Programs&#45;&gt;Perl6::Documentable::DocPage -->
<g id="edge8" class="edge">
<title>Perl6::Documentable::DocPage::Index::Programs&#45;&gt;Perl6::Documentable::DocPage</title>
<path fill="none" stroke="#000000" d="M371.3203,-1419.1966C427.18,-1412.9079 479.6574,-1407 479.6574,-1407 479.6574,-1407 613.4343,-1313.7005 677.9426,-1268.7107"/>
<polygon fill="#000000" stroke="#000000" points="679.9941,-1271.5471 686.1942,-1262.9558 675.9898,-1265.8055 679.9941,-1271.5471"/>
</g>
<!-- Perl6::Documentable::DocPage::Index::Routine -->
<g id="node20" class="node">
<title>Perl6::Documentable::DocPage::Index::Routine</title>
<g id="a_node20"><a xlink:href="/type/Perl6::Documentable::DocPage::Index::Routine" xlink:title="Perl6::Documentable::DocPage::Index::Routine">
<ellipse fill="none" stroke="#000000" cx="239.8287" cy="-1380" rx="225.56" ry="18"/>
<text text-anchor="middle" x="239.8287" y="-1376.3" font-family="FreeSans" font-size="14.00" fill="#000000">Perl6::Documentable::DocPage::Index::Routine</text>
</a>
</g>
</g>
<!-- Perl6::Documentable::DocPage::Index::Routine&#45;&gt;Perl6::Documentable::DocPage -->
<g id="edge9" class="edge">
<title>Perl6::Documentable::DocPage::Index::Routine&#45;&gt;Perl6::Documentable::DocPage</title>
<path fill="none" stroke="#000000" d="M370.2704,-1365.3148C426.5206,-1358.9822 479.6574,-1353 479.6574,-1353 479.6574,-1353 597.2943,-1298.3046 665.1367,-1266.7612"/>
<polygon fill="#000000" stroke="#000000" points="666.7695,-1269.862 674.3617,-1262.4721 663.8182,-1263.5145 666.7695,-1269.862"/>
</g>
<!-- Perl6::Documentable::DocPage::Index::Type -->
<g id="node21" class="node">
<title>Perl6::Documentable::DocPage::Index::Type</title>
<g id="a_node21"><a xlink:href="/type/Perl6::Documentable::DocPage::Index::Type" xlink:title="Perl6::Documentable::DocPage::Index::Type">
<ellipse fill="none" stroke="#000000" cx="239.8287" cy="-1326" rx="210.6627" ry="18"/>
<text text-anchor="middle" x="239.8287" y="-1322.3" font-family="FreeSans" font-size="14.00" fill="#000000">Perl6::Documentable::DocPage::Index::Type</text>
</a>
</g>
</g>
<!-- Perl6::Documentable::DocPage::Index::Type&#45;&gt;Perl6::Documentable::DocPage -->
<g id="edge10" class="edge">
<title>Perl6::Documentable::DocPage::Index::Type&#45;&gt;Perl6::Documentable::DocPage</title>
<path fill="none" stroke="#000000" d="M367.4672,-1311.6304C424.7421,-1305.1824 479.6574,-1299 479.6574,-1299 479.6574,-1299 565.9949,-1278.9287 633.3959,-1263.2596"/>
<polygon fill="#000000" stroke="#000000" points="634.2427,-1266.6561 643.1904,-1260.9826 632.6576,-1259.838 634.2427,-1266.6561"/>
</g>
<!-- Perl6::Documentable::DocPage::Primary::Language -->
<g id="node22" class="node">
<title>Perl6::Documentable::DocPage::Primary::Language</title>
<g id="a_node22"><a xlink:href="/type/Perl6::Documentable::DocPage::Primary::Language" xlink:title="Perl6::Documentable::DocPage::Primary::Language">
<ellipse fill="none" stroke="#000000" cx="239.8287" cy="-1272" rx="239.6576" ry="18"/>
<text text-anchor="middle" x="239.8287" y="-1268.3" font-family="FreeSans" font-size="14.00" fill="#000000">Perl6::Documentable::DocPage::Primary::Language</text>
</a>
</g>
</g>
<!-- Perl6::Documentable::DocPage::Primary::Language&#45;&gt;Perl6::Documentable::DocPage -->
<g id="edge11" class="edge">
<title>Perl6::Documentable::DocPage::Primary::Language&#45;&gt;Perl6::Documentable::DocPage</title>
<path fill="none" stroke="#000000" d="M430.8337,-1261.0764C476.6279,-1258.4575 524.7715,-1255.7041 568.0207,-1253.2307"/>
<polygon fill="#000000" stroke="#000000" points="568.251,-1256.7234 578.0348,-1252.658 567.8512,-1249.7348 568.251,-1256.7234"/>
</g>
<!-- Perl6::Documentable::DocPage::Primary::Programs -->
<g id="node23" class="node">
<title>Perl6::Documentable::DocPage::Primary::Programs</title>
<g id="a_node23"><a xlink:href="/type/Perl6::Documentable::DocPage::Primary::Programs" xlink:title="Perl6::Documentable::DocPage::Primary::Programs">
<ellipse fill="none" stroke="#000000" cx="239.8287" cy="-1218" rx="239.6576" ry="18"/>
<text text-anchor="middle" x="239.8287" y="-1214.3" font-family="FreeSans" font-size="14.00" fill="#000000">Perl6::Documentable::DocPage::Primary::Programs</text>
</a>
</g>
</g>
<!-- Perl6::Documentable::DocPage::Primary::Programs&#45;&gt;Perl6::Documentable::DocPage -->
<g id="edge12" class="edge">
<title>Perl6::Documentable::DocPage::Primary::Programs&#45;&gt;Perl6::Documentable::DocPage</title>
<path fill="none" stroke="#000000" d="M430.8337,-1228.9236C476.6279,-1231.5425 524.7715,-1234.2959 568.0207,-1236.7693"/>
<polygon fill="#000000" stroke="#000000" points="567.8512,-1240.2652 578.0348,-1237.342 568.251,-1233.2766 567.8512,-1240.2652"/>
</g>
<!-- Perl6::Documentable::DocPage::Primary::Type -->
<g id="node24" class="node">
<title>Perl6::Documentable::DocPage::Primary::Type</title>
<g id="a_node24"><a xlink:href="/type/Perl6::Documentable::DocPage::Primary::Type" xlink:title="Perl6::Documentable::DocPage::Primary::Type">
<ellipse fill="none" stroke="#000000" cx="239.8287" cy="-1164" rx="220.161" ry="18"/>
<text text-anchor="middle" x="239.8287" y="-1160.3" font-family="FreeSans" font-size="14.00" fill="#000000">Perl6::Documentable::DocPage::Primary::Type</text>
</a>
</g>
</g>
<!-- Perl6::Documentable::DocPage::Primary::Type&#45;&gt;Perl6::Documentable::DocPage -->
<g id="edge13" class="edge">
<title>Perl6::Documentable::DocPage::Primary::Type&#45;&gt;Perl6::Documentable::DocPage</title>
<path fill="none" stroke="#000000" d="M369.57,-1178.6063C426.0788,-1184.9681 479.6574,-1191 479.6574,-1191 479.6574,-1191 565.9949,-1211.0713 633.3959,-1226.7404"/>
<polygon fill="#000000" stroke="#000000" points="632.6576,-1230.162 643.1904,-1229.0174 634.2427,-1223.3439 632.6576,-1230.162"/>
</g>
<!-- Perl6::Documentable::DocPage::Secondary -->
<g id="node25" class="node">
<title>Perl6::Documentable::DocPage::Secondary</title>
<g id="a_node25"><a xlink:href="/type/Perl6::Documentable::DocPage::Secondary" xlink:title="Perl6::Documentable::DocPage::Secondary">
<ellipse fill="none" stroke="#000000" cx="239.8287" cy="-1110" rx="200.6645" ry="18"/>
<text text-anchor="middle" x="239.8287" y="-1106.3" font-family="FreeSans" font-size="14.00" fill="#000000">Perl6::Documentable::DocPage::Secondary</text>
</a>
</g>
</g>
<!-- Perl6::Documentable::DocPage::Secondary&#45;&gt;Perl6::Documentable::DocPage -->
<g id="edge14" class="edge">
<title>Perl6::Documentable::DocPage::Secondary&#45;&gt;Perl6::Documentable::DocPage</title>
<path fill="none" stroke="#000000" d="M365.0112,-1124.0931C423.1619,-1130.6397 479.6574,-1137 479.6574,-1137 479.6574,-1137 597.2943,-1191.6954 665.1367,-1223.2388"/>
<polygon fill="#000000" stroke="#000000" points="663.8182,-1226.4855 674.3617,-1227.5279 666.7695,-1220.138 663.8182,-1226.4855"/>
</g>
<!-- Perl6::Documentable::DocPage::SubIndex::Routine -->
<g id="node26" class="node">
<title>Perl6::Documentable::DocPage::SubIndex::Routine</title>
<g id="a_node26"><a xlink:href="/type/Perl6::Documentable::DocPage::SubIndex::Routine" xlink:title="Perl6::Documentable::DocPage::SubIndex::Routine">
<ellipse fill="none" stroke="#000000" cx="239.8287" cy="-1056" rx="239.6576" ry="18"/>
<text text-anchor="middle" x="239.8287" y="-1052.3" font-family="FreeSans" font-size="14.00" fill="#000000">Perl6::Documentable::DocPage::SubIndex::Routine</text>
</a>
</g>
</g>
<!-- Perl6::Documentable::DocPage::SubIndex::Routine&#45;&gt;Perl6::Documentable::DocPage -->
<g id="edge15" class="edge">
<title>Perl6::Documentable::DocPage::SubIndex::Routine&#45;&gt;Perl6::Documentable::DocPage</title>
<path fill="none" stroke="#000000" d="M373.0684,-1071.0002C428.2699,-1077.2148 479.6574,-1083 479.6574,-1083 479.6574,-1083 613.4343,-1176.2995 677.9426,-1221.2893"/>
<polygon fill="#000000" stroke="#000000" points="675.9898,-1224.1945 686.1942,-1227.0442 679.9941,-1218.4529 675.9898,-1224.1945"/>
</g>
<!-- Perl6::Documentable::DocPage::SubIndex::Type -->
<g id="node27" class="node">
<title>Perl6::Documentable::DocPage::SubIndex::Type</title>
<g id="a_node27"><a xlink:href="/type/Perl6::Documentable::DocPage::SubIndex::Type" xlink:title="Perl6::Documentable::DocPage::SubIndex::Type">
<ellipse fill="none" stroke="#000000" cx="239.8287" cy="-1002" rx="225.56" ry="18"/>
<text text-anchor="middle" x="239.8287" y="-998.3" font-family="FreeSans" font-size="14.00" fill="#000000">Perl6::Documentable::DocPage::SubIndex::Type</text>
</a>
</g>
</g>
<!-- Perl6::Documentable::DocPage::SubIndex::Type&#45;&gt;Perl6::Documentable::DocPage -->
<g id="edge16" class="edge">
<title>Perl6::Documentable::DocPage::SubIndex::Type&#45;&gt;Perl6::Documentable::DocPage</title>
<path fill="none" stroke="#000000" d="M370.2704,-1016.6852C426.5206,-1023.0178 479.6574,-1029 479.6574,-1029 479.6574,-1029 624.0896,-1163.3078 685.1729,-1220.1092"/>
<polygon fill="#000000" stroke="#000000" points="682.8287,-1222.7088 692.5353,-1226.9555 687.5956,-1217.5826 682.8287,-1222.7088"/>
</g>
<!-- Perl6::Documentable::Heading::Actions -->
<g id="node28" class="node">
<title>Perl6::Documentable::Heading::Actions</title>
<g id="a_node28"><a xlink:href="/type/Perl6::Documentable::Heading::Actions" xlink:title="Perl6::Documentable::Heading::Actions">
<ellipse fill="none" stroke="#000000" cx="711.94" cy="-234" rx="191.1661" ry="18"/>
<text text-anchor="middle" x="711.94" y="-230.3" font-family="FreeSans" font-size="14.00" fill="#000000">Perl6::Documentable::Heading::Actions</text>
</a>
</g>
</g>
<!-- Perl6::Documentable::Heading::Actions&#45;&gt;Any -->
<g id="edge17" class="edge">
<title>Perl6::Documentable::Heading::Actions&#45;&gt;Any</title>
<path fill="none" stroke="#000000" d="M820.129,-248.8821C865.6315,-255.1413 908.2226,-261 908.2226,-261 908.2226,-261 935.8348,-269.6644 959.7756,-277.1767"/>
<polygon fill="#000000" stroke="#000000" points="958.791,-280.5359 969.3802,-280.1905 960.8868,-273.857 958.791,-280.5359"/>
</g>
<!-- Perl6::Documentable::Heading::Grammar -->
<g id="node29" class="node">
<title>Perl6::Documentable::Heading::Grammar</title>
<g id="a_node29"><a xlink:href="/type/Perl6::Documentable::Heading::Grammar" xlink:title="Perl6::Documentable::Heading::Grammar">
<ellipse fill="none" stroke="#000000" cx="711.94" cy="-180" rx="191.1661" ry="18"/>
<text text-anchor="middle" x="711.94" y="-176.3" font-family="FreeSans" font-size="14.00" fill="#000000">Perl6::Documentable::Heading::Grammar</text>
</a>
</g>
</g>
<!-- Perl6::Documentable::Heading::Grammar&#45;&gt;Any -->
<g id="edge18" class="edge">
<title>Perl6::Documentable::Heading::Grammar&#45;&gt;Any</title>
<path fill="none" stroke="#000000" d="M820.129,-194.8821C865.6315,-201.1413 908.2226,-207 908.2226,-207 908.2226,-207 936.2226,-261 936.2226,-261 936.2226,-261 949.03,-266.9574 962.6127,-273.2754"/>
<polygon fill="#000000" stroke="#000000" points="961.449,-276.5942 971.9922,-277.6383 964.4013,-270.2472 961.449,-276.5942"/>
</g>
<!-- Perl6::Documentable::Index -->
<g id="node30" class="node">
<title>Perl6::Documentable::Index</title>
<g id="a_node30"><a xlink:href="/type/Perl6::Documentable::Index" xlink:title="Perl6::Documentable::Index">
<ellipse fill="none" stroke="#000000" cx="239.8287" cy="-504" rx="137.5759" ry="18"/>
<text text-anchor="middle" x="239.8287" y="-500.3" font-family="FreeSans" font-size="14.00" fill="#000000">Perl6::Documentable::Index</text>
</a>
</g>
</g>
<!-- Perl6::Documentable::Index&#45;&gt;Perl6::Documentable -->
<g id="edge19" class="edge">
<title>Perl6::Documentable::Index&#45;&gt;Perl6::Documentable</title>
<path fill="none" stroke="#000000" d="M344.3234,-492.236C408.9523,-484.96 479.6574,-477 479.6574,-477 479.6574,-477 551.7513,-468.62 615.6106,-461.1971"/>
<polygon fill="#000000" stroke="#000000" points="616.2477,-464.6467 625.7767,-460.0154 615.4394,-457.6935 616.2477,-464.6467"/>
</g>
<!-- Perl6::Documentable::Primary -->
<g id="node31" class="node">
<title>Perl6::Documentable::Primary</title>
<g id="a_node31"><a xlink:href="/type/Perl6::Documentable::Primary" xlink:title="Perl6::Documentable::Primary">
<ellipse fill="none" stroke="#000000" cx="239.8287" cy="-450" rx="147.5738" ry="18"/>
<text text-anchor="middle" x="239.8287" y="-446.3" font-family="FreeSans" font-size="14.00" fill="#000000">Perl6::Documentable::Primary</text>
</a>
</g>
</g>
<!-- Perl6::Documentable::Primary&#45;&gt;Perl6::Documentable -->
<g id="edge20" class="edge">
<title>Perl6::Documentable::Primary&#45;&gt;Perl6::Documentable</title>
<path fill="none" stroke="#000000" d="M387.5889,-450C455.6279,-450 535.1013,-450 598.3512,-450"/>
<polygon fill="#000000" stroke="#000000" points="598.3589,-453.5001 608.3589,-450 598.3588,-446.5001 598.3589,-453.5001"/>
</g>
<!-- Perl6::Documentable::Registry -->
<g id="node32" class="node">
<title>Perl6::Documentable::Registry</title>
<g id="a_node32"><a xlink:href="/type/Perl6::Documentable::Registry" xlink:title="Perl6::Documentable::Registry">
<ellipse fill="none" stroke="#000000" cx="711.94" cy="-126" rx="152.1731" ry="18"/>
<text text-anchor="middle" x="711.94" y="-122.3" font-family="FreeSans" font-size="14.00" fill="#000000">Perl6::Documentable::Registry</text>
</a>
</g>
</g>
<!-- Perl6::Documentable::Registry&#45;&gt;Any -->
<g id="edge21" class="edge">
<title>Perl6::Documentable::Registry&#45;&gt;Any</title>
<path fill="none" stroke="#000000" d="M811.2314,-139.6582C859.9157,-146.3551 908.2226,-153 908.2226,-153 908.2226,-153 936.2226,-261 936.2226,-261 936.2226,-261 949.03,-266.9574 962.6127,-273.2754"/>
<polygon fill="#000000" stroke="#000000" points="961.449,-276.5942 971.9922,-277.6383 964.4013,-270.2472 961.449,-276.5942"/>
</g>
<!-- Perl6::Documentable::Search -->
<g id="node33" class="node">
<title>Perl6::Documentable::Search</title>
<g id="a_node33"><a xlink:href="/type/Perl6::Documentable::Search" xlink:title="Perl6::Documentable::Search">
<ellipse fill="none" stroke="#000000" cx="711.94" cy="-72" rx="142.1749" ry="18"/>
<text text-anchor="middle" x="711.94" y="-68.3" font-family="FreeSans" font-size="14.00" fill="#000000">Perl6::Documentable::Search</text>
</a>
</g>
</g>
<!-- Perl6::Documentable::Search&#45;&gt;Any -->
<g id="edge22" class="edge">
<title>Perl6::Documentable::Search&#45;&gt;Any</title>
<path fill="none" stroke="#000000" d="M808.3563,-85.2627C857.9951,-92.0909 908.2226,-99 908.2226,-99 908.2226,-99 936.2226,-261 936.2226,-261 936.2226,-261 949.03,-266.9574 962.6127,-273.2754"/>
<polygon fill="#000000" stroke="#000000" points="961.449,-276.5942 971.9922,-277.6383 964.4013,-270.2472 961.449,-276.5942"/>
</g>
<!-- Perl6::Documentable::Secondary -->
<g id="node34" class="node">
<title>Perl6::Documentable::Secondary</title>
<g id="a_node34"><a xlink:href="/type/Perl6::Documentable::Secondary" xlink:title="Perl6::Documentable::Secondary">
<ellipse fill="none" stroke="#000000" cx="239.8287" cy="-396" rx="157.0724" ry="18"/>
<text text-anchor="middle" x="239.8287" y="-392.3" font-family="FreeSans" font-size="14.00" fill="#000000">Perl6::Documentable::Secondary</text>
</a>
</g>
</g>
<!-- Perl6::Documentable::Secondary&#45;&gt;Perl6::Documentable -->
<g id="edge23" class="edge">
<title>Perl6::Documentable::Secondary&#45;&gt;Perl6::Documentable</title>
<path fill="none" stroke="#000000" d="M352.019,-408.6304C414.437,-415.6575 479.6574,-423 479.6574,-423 479.6574,-423 551.7513,-431.38 615.6106,-438.8029"/>
<polygon fill="#000000" stroke="#000000" points="615.4394,-442.3065 625.7767,-439.9846 616.2477,-435.3533 615.4394,-442.3065"/>
</g>
<!-- Perl6::Documentable::To::HTML::Wrapper -->
<g id="node35" class="node">
<title>Perl6::Documentable::To::HTML::Wrapper</title>
<g id="a_node35"><a xlink:href="/type/Perl6::Documentable::To::HTML::Wrapper" xlink:title="Perl6::Documentable::To::HTML::Wrapper">
<ellipse fill="none" stroke="#000000" cx="711.94" cy="-18" rx="196.0654" ry="18"/>
<text text-anchor="middle" x="711.94" y="-14.3" font-family="FreeSans" font-size="14.00" fill="#000000">Perl6::Documentable::To::HTML::Wrapper</text>
</a>
</g>
</g>
<!-- Perl6::Documentable::To::HTML::Wrapper&#45;&gt;Any -->
<g id="edge24" class="edge">
<title>Perl6::Documentable::To::HTML::Wrapper&#45;&gt;Any</title>
<path fill="none" stroke="#000000" d="M820.9871,-33.0002C866.1656,-39.2148 908.2226,-45 908.2226,-45 908.2226,-45 936.2226,-261 936.2226,-261 936.2226,-261 949.03,-266.9574 962.6127,-273.2754"/>
<polygon fill="#000000" stroke="#000000" points="961.449,-276.5942 971.9922,-277.6383 964.4013,-270.2472 961.449,-276.5942"/>
</g>
</g>
</svg>
