<?xml version="1.0" encoding="UTF-8" standalone="no"?>
<!DOCTYPE svg PUBLIC "-//W3C//DTD SVG 1.1//EN"
 "http://www.w3.org/Graphics/SVG/1.1/DTD/svg11.dtd">
<!-- Generated by graphviz version 2.40.1 (0)
 -->
<!-- Title: perl6&#45;type&#45;graph Pages: 1 -->
<svg width="636pt" height="206pt"
 viewBox="0.00 0.00 635.76 206.00" xmlns="http://www.w3.org/2000/svg" xmlns:xlink="http://www.w3.org/1999/xlink">
<g id="graph0" class="graph" transform="scale(1 1) rotate(0) translate(4 202)">
<title>perl6&#45;type&#45;graph</title>
<polygon fill="#ffffff" stroke="transparent" points="-4,4 -4,-202 631.7555,-202 631.7555,4 -4,4"/>
<!-- X::Documentable::Config::InvalidConfig -->
<g id="node1" class="node">
<title>X::Documentable::Config::InvalidConfig</title>
<g id="a_node1"><a xlink:href="/type/X::Documentable::Config::InvalidConfig" xlink:title="X::Documentable::Config::InvalidConfig">
<ellipse fill="none" stroke="#000000" cx="196.2826" cy="-180" rx="196.0654" ry="18"/>
<text text-anchor="middle" x="196.2826" y="-176.3" font-family="FreeSans" font-size="14.00" fill="#000000">X::Documentable::Config::InvalidConfig</text>
</a>
</g>
</g>
<!-- Exception -->
<g id="node5" class="node">
<title>Exception</title>
<g id="a_node5"><a xlink:href="/type/Exception" xlink:title="Exception">
<ellipse fill="none" stroke="#000000" cx="483.1603" cy="-99" rx="54.6905" ry="18"/>
<text text-anchor="middle" x="483.1603" y="-95.3" font-family="FreeSans" font-size="14.00" fill="#000000">Exception</text>
</a>
</g>
</g>
<!-- X::Documentable::Config::InvalidConfig&#45;&gt;Exception -->
<g id="edge1" class="edge">
<title>X::Documentable::Config::InvalidConfig&#45;&gt;Exception</title>
<path fill="none" stroke="#000000" d="M305.3297,-164.9998C350.5081,-158.7852 392.5652,-153 392.5652,-153 392.5652,-153 422.3163,-135.2666 447.7203,-120.1243"/>
<polygon fill="#000000" stroke="#000000" points="449.671,-123.0362 456.4688,-114.9097 446.0869,-117.0234 449.671,-123.0362"/>
</g>
<!-- X::Documentable::MissingMetadata -->
<g id="node2" class="node">
<title>X::Documentable::MissingMetadata</title>
<g id="a_node2"><a xlink:href="/type/X::Documentable::MissingMetadata" xlink:title="X::Documentable::MissingMetadata">
<ellipse fill="none" stroke="#000000" cx="196.2826" cy="-126" rx="167.0704" ry="18"/>
<text text-anchor="middle" x="196.2826" y="-122.3" font-family="FreeSans" font-size="14.00" fill="#000000">X::Documentable::MissingMetadata</text>
</a>
</g>
</g>
<!-- X::Documentable::MissingMetadata&#45;&gt;Exception -->
<g id="edge2" class="edge">
<title>X::Documentable::MissingMetadata&#45;&gt;Exception</title>
<path fill="none" stroke="#000000" d="M322.1113,-114.1574C356.034,-110.9647 391.2907,-107.6465 420.1371,-104.9315"/>
<polygon fill="#000000" stroke="#000000" points="420.8323,-108.3817 430.4603,-103.96 420.1763,-101.4125 420.8323,-108.3817"/>
</g>
<!-- X::Documentable::SubtitleNotFound -->
<g id="node3" class="node">
<title>X::Documentable::SubtitleNotFound</title>
<g id="a_node3"><a xlink:href="/type/X::Documentable::SubtitleNotFound" xlink:title="X::Documentable::SubtitleNotFound">
<ellipse fill="none" stroke="#000000" cx="196.2826" cy="-72" rx="171.6696" ry="18"/>
<text text-anchor="middle" x="196.2826" y="-68.3" font-family="FreeSans" font-size="14.00" fill="#000000">X::Documentable::SubtitleNotFound</text>
</a>
</g>
</g>
<!-- X::Documentable::SubtitleNotFound&#45;&gt;Exception -->
<g id="edge3" class="edge">
<title>X::Documentable::SubtitleNotFound&#45;&gt;Exception</title>
<path fill="none" stroke="#000000" d="M324.2,-84.0392C357.6013,-87.1828 392.1386,-90.4333 420.4526,-93.0982"/>
<polygon fill="#000000" stroke="#000000" points="420.3048,-96.5996 430.5888,-94.0521 420.9608,-89.6304 420.3048,-96.5996"/>
</g>
<!-- X::Documentable::TitleNotFound -->
<g id="node4" class="node">
<title>X::Documentable::TitleNotFound</title>
<g id="a_node4"><a xlink:href="/type/X::Documentable::TitleNotFound" xlink:title="X::Documentable::TitleNotFound">
<ellipse fill="none" stroke="#000000" cx="196.2826" cy="-18" rx="157.0724" ry="18"/>
<text text-anchor="middle" x="196.2826" y="-14.3" font-family="FreeSans" font-size="14.00" fill="#000000">X::Documentable::TitleNotFound</text>
</a>
</g>
</g>
<!-- X::Documentable::TitleNotFound&#45;&gt;Exception -->
<g id="edge4" class="edge">
<title>X::Documentable::TitleNotFound&#45;&gt;Exception</title>
<path fill="none" stroke="#000000" d="M297.0113,-31.8559C345.2045,-38.4852 392.5652,-45 392.5652,-45 392.5652,-45 422.3163,-62.7334 447.7203,-77.8757"/>
<polygon fill="#000000" stroke="#000000" points="446.0869,-80.9766 456.4688,-83.0903 449.671,-74.9638 446.0869,-80.9766"/>
</g>
<!-- Any -->
<g id="node6" class="node">
<title>Any</title>
<g id="a_node6"><a xlink:href="/type/Any" xlink:title="Any">
<ellipse fill="none" stroke="#000000" cx="600.7555" cy="-99" rx="27" ry="18"/>
<text text-anchor="middle" x="600.7555" y="-95.3" font-family="FreeSans" font-size="14.00" fill="#000000">Any</text>
</a>
</g>
</g>
<!-- Exception&#45;&gt;Any -->
<g id="edge5" class="edge">
<title>Exception&#45;&gt;Any</title>
<path fill="none" stroke="#000000" d="M537.8267,-99C546.5986,-99 555.4938,-99 563.7261,-99"/>
<polygon fill="#000000" stroke="#000000" points="563.7399,-102.5001 573.7399,-99 563.7399,-95.5001 563.7399,-102.5001"/>
</g>
</g>
</svg>
