<?xml version="1.0" encoding="UTF-8" standalone="no"?>
<!DOCTYPE svg PUBLIC "-//W3C//DTD SVG 1.1//EN"
 "http://www.w3.org/Graphics/SVG/1.1/DTD/svg11.dtd">
<!-- Generated by graphviz version 2.40.1 (0)
 -->
<!-- Title: perl6&#45;type&#45;graph Pages: 1 -->
<svg width="323pt" height="188pt"
 viewBox="0.00 0.00 322.57 188.00" xmlns="http://www.w3.org/2000/svg" xmlns:xlink="http://www.w3.org/1999/xlink">
<g id="graph0" class="graph" transform="scale(1 1) rotate(0) translate(4 184)">
<title>perl6&#45;type&#45;graph</title>
<polygon fill="#ffffff" stroke="transparent" points="-4,4 -4,-184 318.5721,-184 318.5721,4 -4,4"/>
<!-- Perl6::Documentable::Secondary -->
<g id="node1" class="node">
<title>Perl6::Documentable::Secondary</title>
<g id="a_node1"><a xlink:href="/type/Perl6::Documentable::Secondary" xlink:title="Perl6::Documentable::Secondary">
<ellipse fill="none" stroke="#000000" cx="157.286" cy="-18" rx="157.0724" ry="18"/>
<text text-anchor="middle" x="157.286" y="-14.3" font-family="FreeSans" font-size="14.00" fill="#000000">Perl6::Documentable::Secondary</text>
</a>
</g>
</g>
<!-- Perl6::Documentable -->
<g id="node3" class="node">
<title>Perl6::Documentable</title>
<g id="a_node3"><a xlink:href="/type/Perl6::Documentable" xlink:title="Perl6::Documentable">
<ellipse fill="none" stroke="#000000" cx="157.286" cy="-90" rx="103.1819" ry="18"/>
<text text-anchor="middle" x="157.286" y="-86.3" font-family="FreeSans" font-size="14.00" fill="#000000">Perl6::Documentable</text>
</a>
</g>
</g>
<!-- Perl6::Documentable::Secondary&#45;&gt;Perl6::Documentable -->
<g id="edge1" class="edge">
<title>Perl6::Documentable::Secondary&#45;&gt;Perl6::Documentable</title>
<path fill="none" stroke="#000000" d="M157.286,-36.1686C157.286,-43.869 157.286,-53.0257 157.286,-61.5834"/>
<polygon fill="#000000" stroke="#000000" points="153.7861,-61.5867 157.286,-71.5867 160.7861,-61.5868 153.7861,-61.5867"/>
</g>
<!-- Any -->
<g id="node2" class="node">
<title>Any</title>
<g id="a_node2"><a xlink:href="/type/Any" xlink:title="Any">
<ellipse fill="none" stroke="#000000" cx="157.286" cy="-162" rx="27" ry="18"/>
<text text-anchor="middle" x="157.286" y="-158.3" font-family="FreeSans" font-size="14.00" fill="#000000">Any</text>
</a>
</g>
</g>
<!-- Perl6::Documentable&#45;&gt;Any -->
<g id="edge2" class="edge">
<title>Perl6::Documentable&#45;&gt;Any</title>
<path fill="none" stroke="#000000" d="M157.286,-108.1686C157.286,-115.869 157.286,-125.0257 157.286,-133.5834"/>
<polygon fill="#000000" stroke="#000000" points="153.7861,-133.5867 157.286,-143.5867 160.7861,-133.5868 153.7861,-133.5867"/>
</g>
</g>
</svg>
