<?xml version="1.0" encoding="UTF-8" standalone="no"?>
<!DOCTYPE svg PUBLIC "-//W3C//DTD SVG 1.1//EN"
 "http://www.w3.org/Graphics/SVG/1.1/DTD/svg11.dtd">
<!-- Generated by graphviz version 2.40.1 (0)
 -->
<!-- Title: perl6&#45;type&#45;graph Pages: 1 -->
<svg width="636pt" height="260pt"
 viewBox="0.00 0.00 635.76 260.00" xmlns="http://www.w3.org/2000/svg" xmlns:xlink="http://www.w3.org/1999/xlink">
<g id="graph0" class="graph" transform="scale(1 1) rotate(0) translate(4 256)">
<title>perl6&#45;type&#45;graph</title>
<polygon fill="#ffffff" stroke="transparent" points="-4,4 -4,-256 631.7555,-256 631.7555,4 -4,4"/>
<!-- X::Documentable::Config::InvalidConfig -->
<g id="node1" class="node">
<title>X::Documentable::Config::InvalidConfig</title>
<g id="a_node1"><a xlink:href="/type/X::Documentable::Config::InvalidConfig" xlink:title="X::Documentable::Config::InvalidConfig">
<ellipse fill="none" stroke="#000000" cx="196.2826" cy="-234" rx="196.0654" ry="18"/>
<text text-anchor="middle" x="196.2826" y="-230.3" font-family="FreeSans" font-size="14.00" fill="#000000">X::Documentable::Config::InvalidConfig</text>
</a>
</g>
</g>
<!-- Exception -->
<g id="node6" class="node">
<title>Exception</title>
<g id="a_node6"><a xlink:href="/type/Exception" xlink:title="Exception">
<ellipse fill="none" stroke="#000000" cx="483.1603" cy="-126" rx="54.6905" ry="18"/>
<text text-anchor="middle" x="483.1603" y="-122.3" font-family="FreeSans" font-size="14.00" fill="#000000">Exception</text>
</a>
</g>
</g>
<!-- X::Documentable::Config::InvalidConfig&#45;&gt;Exception -->
<g id="edge1" class="edge">
<title>X::Documentable::Config::InvalidConfig&#45;&gt;Exception</title>
<path fill="none" stroke="#000000" d="M305.3297,-218.9998C350.5081,-212.7852 392.5652,-207 392.5652,-207 392.5652,-207 429.6676,-173.8272 456.3847,-149.9397"/>
<polygon fill="#000000" stroke="#000000" points="458.8254,-152.4525 463.9474,-143.178 454.1597,-147.2341 458.8254,-152.4525"/>
</g>
<!-- X::Documentable::MissingMetadata -->
<g id="node2" class="node">
<title>X::Documentable::MissingMetadata</title>
<g id="a_node2"><a xlink:href="/type/X::Documentable::MissingMetadata" xlink:title="X::Documentable::MissingMetadata">
<ellipse fill="none" stroke="#000000" cx="196.2826" cy="-180" rx="167.0704" ry="18"/>
<text text-anchor="middle" x="196.2826" y="-176.3" font-family="FreeSans" font-size="14.00" fill="#000000">X::Documentable::MissingMetadata</text>
</a>
</g>
</g>
<!-- X::Documentable::MissingMetadata&#45;&gt;Exception -->
<g id="edge2" class="edge">
<title>X::Documentable::MissingMetadata&#45;&gt;Exception</title>
<path fill="none" stroke="#000000" d="M299.31,-165.8279C346.699,-159.3092 392.5652,-153 392.5652,-153 392.5652,-153 412.0767,-147.185 432.99,-140.9522"/>
<polygon fill="#000000" stroke="#000000" points="434.0486,-144.2889 442.6324,-138.0785 432.0492,-137.5805 434.0486,-144.2889"/>
</g>
<!-- X::Documentable::SubtitleNotFound -->
<g id="node3" class="node">
<title>X::Documentable::SubtitleNotFound</title>
<g id="a_node3"><a xlink:href="/type/X::Documentable::SubtitleNotFound" xlink:title="X::Documentable::SubtitleNotFound">
<ellipse fill="none" stroke="#000000" cx="196.2826" cy="-126" rx="171.6696" ry="18"/>
<text text-anchor="middle" x="196.2826" y="-122.3" font-family="FreeSans" font-size="14.00" fill="#000000">X::Documentable::SubtitleNotFound</text>
</a>
</g>
</g>
<!-- X::Documentable::SubtitleNotFound&#45;&gt;Exception -->
<g id="edge3" class="edge">
<title>X::Documentable::SubtitleNotFound&#45;&gt;Exception</title>
<path fill="none" stroke="#000000" d="M368.1291,-126C385.7751,-126 402.8236,-126 418.1477,-126"/>
<polygon fill="#000000" stroke="#000000" points="418.4674,-129.5001 428.4674,-126 418.4674,-122.5001 418.4674,-129.5001"/>
</g>
<!-- X::Documentable::TitleNotFound -->
<g id="node4" class="node">
<title>X::Documentable::TitleNotFound</title>
<g id="a_node4"><a xlink:href="/type/X::Documentable::TitleNotFound" xlink:title="X::Documentable::TitleNotFound">
<ellipse fill="none" stroke="#000000" cx="196.2826" cy="-72" rx="157.0724" ry="18"/>
<text text-anchor="middle" x="196.2826" y="-68.3" font-family="FreeSans" font-size="14.00" fill="#000000">X::Documentable::TitleNotFound</text>
</a>
</g>
</g>
<!-- X::Documentable::TitleNotFound&#45;&gt;Exception -->
<g id="edge4" class="edge">
<title>X::Documentable::TitleNotFound&#45;&gt;Exception</title>
<path fill="none" stroke="#000000" d="M297.0113,-85.8559C345.2045,-92.4852 392.5652,-99 392.5652,-99 392.5652,-99 412.0767,-104.815 432.99,-111.0478"/>
<polygon fill="#000000" stroke="#000000" points="432.0492,-114.4195 442.6324,-113.9215 434.0486,-107.7111 432.0492,-114.4195"/>
</g>
<!-- X::Documentable::TypeNotFound -->
<g id="node5" class="node">
<title>X::Documentable::TypeNotFound</title>
<g id="a_node5"><a xlink:href="/type/X::Documentable::TypeNotFound" xlink:title="X::Documentable::TypeNotFound">
<ellipse fill="none" stroke="#000000" cx="196.2826" cy="-18" rx="152.1731" ry="18"/>
<text text-anchor="middle" x="196.2826" y="-14.3" font-family="FreeSans" font-size="14.00" fill="#000000">X::Documentable::TypeNotFound</text>
</a>
</g>
</g>
<!-- X::Documentable::TypeNotFound&#45;&gt;Exception -->
<g id="edge5" class="edge">
<title>X::Documentable::TypeNotFound&#45;&gt;Exception</title>
<path fill="none" stroke="#000000" d="M295.5739,-31.6582C344.2583,-38.3551 392.5652,-45 392.5652,-45 392.5652,-45 429.6676,-78.1728 456.3847,-102.0603"/>
<polygon fill="#000000" stroke="#000000" points="454.1597,-104.7659 463.9474,-108.822 458.8254,-99.5475 454.1597,-104.7659"/>
</g>
<!-- Any -->
<g id="node7" class="node">
<title>Any</title>
<g id="a_node7"><a xlink:href="/type/Any" xlink:title="Any">
<ellipse fill="none" stroke="#000000" cx="600.7555" cy="-126" rx="27" ry="18"/>
<text text-anchor="middle" x="600.7555" y="-122.3" font-family="FreeSans" font-size="14.00" fill="#000000">Any</text>
</a>
</g>
</g>
<!-- Exception&#45;&gt;Any -->
<g id="edge6" class="edge">
<title>Exception&#45;&gt;Any</title>
<path fill="none" stroke="#000000" d="M537.8267,-126C546.5986,-126 555.4938,-126 563.7261,-126"/>
<polygon fill="#000000" stroke="#000000" points="563.7399,-129.5001 573.7399,-126 563.7399,-122.5001 563.7399,-129.5001"/>
</g>
</g>
</svg>
